# xmcd
#
# Track frame offsets:
#	150
#	22401
#	41151
#	62111
#	92767
#	111084
#	129253
#	146131
#	168778
#	187317
#	206687
#	225077
#	240807
#
# Disc length: 3471 seconds
#
# Revision: 0
# Processed by: cddbd v1.5.2PL0 Copyright (c) Steve Scherf et al.
# Submitted via: dBpowerAMP V4.0
#
DISCID=b10d8d0d
DTITLE=Nina Van Horn - The planet
DYEAR=1900
DGENRE=Blues
TTITLE0=memories of texas
TTITLE1=dont like a shit
TTITLE2=the planet
TTITLE3=little big horn
TTITLE4=sixty-nine
TTITLE5=hoochie coochie girl
TTITLE6=yellow flower
TTITLE7=whats the news
TTITLE8=the road
TTITLE9=bad side
TTITLE10=malika
TTITLE11=hes my man
TTITLE12=la planete
EXTD=
EXTT0=
EXTT1=
EXTT2=
EXTT3=
EXTT4=
EXTT5=
EXTT6=
EXTT7=
EXTT8=
EXTT9=
EXTT10=
EXTT11=
EXTT12=
PLAYORDER=
